# xmcd
#
# Track frame offsets: 
#        183
#        23358
#        59983
#        104508
#        124533
#        157608
#        188058
#        214908
#        242208
#        277383
#
# Disc length: 4414 seconds
#
# Revision: 2
# Processed by: cddbd v1.5.1PL0 Copyright (c) Steve Scherf et al.
# Submitted via: ExactAudioCopy v0.95a5
#
DISCID=8e113c0a
DTITLE=Eric Clapton - A Blues Evening
DYEAR=1990
DGENRE=
TTITLE0=All your love
TTITLE1=Have you ever loved a woman?
TTITLE2=Ramblin on my mind
TTITLE3=Instrumental  session
TTITLE4=Pretending
TTITLE5=Running on faith
TTITLE6=White room
TTITLE7=Bad love
TTITLE8=Wonderful tonight
TTITLE9=Layla
EXTD=
EXTT0=
EXTT1=
EXTT2=
EXTT3=
EXTT4=
EXTT5=
EXTT6=
EXTT7=
EXTT8=
EXTT9=
PLAYORDER=
